<svg width="29" height="28" viewBox="0 0 29 28" fill="none" xmlns="http://www.w3.org/2000/svg">
<path d="M12.168 11.1639C15.2641 14.2274 16.0561 14.6509 17.3355 14.6509C18.5237 14.6509 19.2721 14.3547 22.503 11.1639C19.8563 8.5294 18.8512 7.67822 17.3355 7.67822C15.8198 7.67822 14.8147 8.5294 12.168 11.1639ZM19.4273 11.1646C19.4273 12.318 18.489 13.2563 17.3355 13.2563C16.182 13.2563 15.2437 12.318 15.2437 11.1646C15.2437 10.0111 16.182 9.07276 17.3355 9.07276C18.489 9.07276 19.4273 10.0111 19.4273 11.1646Z" fill="white"/>
<path d="M17.3355 11.8618C17.7206 11.8618 18.0328 11.5496 18.0328 11.1646C18.0328 10.7795 17.7206 10.4673 17.3355 10.4673C16.9504 10.4673 16.6383 10.7795 16.6383 11.1646C16.6383 11.5496 16.9504 11.8618 17.3355 11.8618Z" fill="white"/>
<path d="M17.3355 2.1001C12.3375 2.1001 8.27105 6.16655 8.27105 11.1646C8.27105 13.413 9.09889 15.4686 10.4595 17.0545L8.96831 18.5458L8.47535 18.0528C8.203 17.7804 7.76172 17.7804 7.48937 18.0528L3.21127 22.3308C2.39621 23.1458 2.39621 24.4722 3.21127 25.2893C4.02702 26.1038 5.35531 26.1039 6.16921 25.2886L10.4473 21.0107C10.7197 20.7383 10.7197 20.2971 10.4473 20.0247L9.95429 19.5317L11.4455 18.0405C13.0315 19.4012 15.087 20.229 17.3355 20.229C22.3335 20.229 26.4 16.1626 26.4 11.1646C26.4 6.16655 22.3335 2.1001 17.3355 2.1001ZM23.984 11.6575C20.3343 15.3073 19.2162 16.0454 17.3355 16.0454C15.3561 16.0454 14.1399 15.1105 10.687 11.6575C10.4146 11.3852 10.4146 10.9439 10.687 10.6715C13.6994 7.65847 15.0748 6.28369 17.3355 6.28369C19.5962 6.28369 20.9717 7.65847 23.984 10.6716C24.2564 10.9439 24.2564 11.3852 23.984 11.6575Z" fill="white"/>
</svg>
