<svg width="28" height="28" viewBox="0 0 28 28" fill="none" xmlns="http://www.w3.org/2000/svg">
<path d="M7.35514 19.4998L7.30817 19.497C6.93939 19.4746 6.58375 19.4069 6.24601 19.3006L3.88558 23.3876C3.66932 23.7621 3.80089 24.2409 4.17805 24.4525L6.50154 25.7556C6.87218 25.9634 7.34118 25.8347 7.55366 25.4668L10.9998 19.4998H7.35514Z" fill="white"/>
<path d="M20.4629 2.21556L13.4512 6.50826V18.8702L20.4717 23.041C20.9892 23.3484 21.6447 22.9756 21.6447 22.3738V2.87738C21.6447 2.27097 20.9802 1.89888 20.4629 2.21556Z" fill="white"/>
<path d="M3.21073 15.4255V10.2125C3.21073 9.91375 3.24307 9.62274 3.30293 9.34196H2.17424C1.36001 9.34196 0.699951 10.0018 0.699951 10.8158V14.8222C0.699951 15.6362 1.36001 16.296 2.17424 16.296H3.30251C3.24286 16.0145 3.21073 15.7235 3.21073 15.4255Z" fill="white"/>
<path d="M11.9578 17.9509H6.1155C4.22178 17.8617 2.68664 16.6691 2.68664 15.198V9.93435C2.68664 8.46323 4.22178 7.2707 6.1155 7.35998H11.9578V17.9509Z" fill="white"/>
<path d="M25.0534 18.9592C24.8548 18.9592 24.6561 18.8834 24.5045 18.7319L22.9385 17.1664C22.6353 16.8634 22.6353 16.372 22.9385 16.0689C23.2416 15.7659 23.7332 15.7659 24.0363 16.0689L25.6024 17.6344C25.9055 17.9374 25.9055 18.4288 25.6024 18.7319C25.4508 18.8834 25.2521 18.9592 25.0534 18.9592Z" fill="white"/>
<path d="M23.4874 9.64671C23.2887 9.64671 23.09 9.57097 22.9385 9.41938C22.6353 9.11636 22.6353 8.62496 22.9385 8.32189L24.5045 6.75638C24.8076 6.45331 25.2991 6.45331 25.6023 6.75638C25.9054 7.05941 25.9054 7.5508 25.6023 7.85388L24.0363 9.41938C23.8848 9.57091 23.686 9.64671 23.4874 9.64671Z" fill="white"/>
<path d="M26.4128 13.5203H24.1981C23.7694 13.5203 23.4218 13.1728 23.4218 12.7442C23.4218 12.3157 23.7694 11.9682 24.1981 11.9682H26.4128C26.8416 11.9682 27.1891 12.3157 27.1891 12.7442C27.1891 13.1728 26.8416 13.5203 26.4128 13.5203Z" fill="white"/>
</svg>
