<svg width="31" height="32" viewBox="0 0 31 32" fill="none" xmlns="http://www.w3.org/2000/svg">
<path fill-rule="evenodd" clip-rule="evenodd" d="M13.1333 0.166138C8.23532 0.892377 3.8345 4.13733 1.59221 8.67642C0.358789 11.1731 0 12.7691 0 15.761C0 18.7529 0.358789 20.3489 1.59221 22.8456C3.57758 26.8647 7.20003 29.8417 11.5384 31.0201C13.4789 31.5472 17.2794 31.5865 19.1079 31.0984C26.4809 29.1304 31.32 22.5933 30.9338 15.1225C30.7609 11.7757 29.8625 9.13568 27.9979 6.49495C24.6701 1.78229 18.8747 -0.685238 13.1333 0.166138ZM18.6033 5.39935C21.7828 6.36467 24.4583 8.95788 25.5629 12.145C26.0148 13.4491 26.3264 15.623 26.177 16.4305L26.0631 17.0454H22.299H18.5349L17.1768 19.5225L15.8187 21.9995H19.9661C22.2469 21.9995 24.1132 22.0689 24.1132 22.1537C24.1132 22.4621 21.946 24.492 20.9945 25.0751C18.498 26.6047 14.9807 27.0691 12.4096 26.2085L11.8098 26.0078V15.761V5.51421L12.4292 5.30687C13.2855 5.02027 15.1583 4.81733 16.2427 4.89366C16.7402 4.92852 17.8025 5.15623 18.6033 5.39935ZM6.88358 19.0179L6.83418 22.2748L6.24778 21.2656C5.17322 19.4162 4.84392 18.1252 4.84392 15.761C4.84392 13.3968 5.17322 12.1058 6.24778 10.2564L6.83418 9.24724L6.88358 12.5041C6.91072 14.2955 6.91072 17.2267 6.88358 19.0179Z" fill="#2979D7"/>
</svg>
