<svg width="21" height="21" viewBox="0 0 21 21" fill="none" xmlns="http://www.w3.org/2000/svg">
<path d="M18.9701 0.057757H2.03006C1.83964 0.0551124 1.65056 0.0900045 1.47362 0.160441C1.29669 0.230877 1.13536 0.335478 0.998856 0.468269C0.86235 0.60106 0.75334 0.759441 0.678051 0.934367C0.602761 1.10929 0.562667 1.29734 0.560059 1.48776V18.6278C0.562667 18.8182 0.602761 19.0062 0.678051 19.1811C0.75334 19.3561 0.86235 19.5145 0.998856 19.6472C1.13536 19.78 1.29669 19.8846 1.47362 19.9551C1.65056 20.0255 1.83964 20.0604 2.03006 20.0578H18.9701C19.1605 20.0604 19.3496 20.0255 19.5265 19.9551C19.7034 19.8846 19.8648 19.78 20.0013 19.6472C20.1378 19.5145 20.2468 19.3561 20.3221 19.1811C20.3974 19.0062 20.4375 18.8182 20.4401 18.6278V1.48776C20.4375 1.29734 20.3974 1.10929 20.3221 0.934367C20.2468 0.759441 20.1378 0.60106 20.0013 0.468269C19.8648 0.335478 19.7034 0.230877 19.5265 0.160441C19.3496 0.0900045 19.1605 0.0551124 18.9701 0.057757ZM6.59006 16.7978H3.59006V7.79776H6.59006V16.7978ZM5.09006 6.53776C4.67632 6.53776 4.27953 6.3734 3.98697 6.08084C3.69442 5.78829 3.53006 5.39149 3.53006 4.97776C3.53006 4.56402 3.69442 4.16723 3.98697 3.87467C4.27953 3.58211 4.67632 3.41776 5.09006 3.41776C5.30975 3.39284 5.53224 3.41461 5.74293 3.48164C5.95363 3.54867 6.1478 3.65945 6.31272 3.80672C6.47763 3.95399 6.60958 4.13444 6.69993 4.33624C6.79028 4.53804 6.83698 4.75665 6.83698 4.97776C6.83698 5.19886 6.79028 5.41747 6.69993 5.61927C6.60958 5.82108 6.47763 6.00152 6.31272 6.1488C6.1478 6.29607 5.95363 6.40684 5.74293 6.47387C5.53224 6.5409 5.30975 6.56267 5.09006 6.53776ZM17.4101 16.7978H14.4101V11.9678C14.4101 10.7578 13.9801 9.96776 12.8901 9.96776C12.5527 9.97023 12.2242 10.076 11.9489 10.2709C11.6735 10.4658 11.4645 10.7404 11.3501 11.0578C11.2718 11.2928 11.2379 11.5403 11.2501 11.7878V16.7878H8.25006C8.25006 16.7878 8.25006 8.60776 8.25006 7.78776H11.2501V9.05776C11.5226 8.58486 11.919 8.19528 12.3965 7.93096C12.874 7.66664 13.4146 7.53761 13.9601 7.55776C15.9601 7.55776 17.4101 8.84776 17.4101 11.6178V16.7978Z" fill="#000929"/>
</svg>
