<svg width="24" height="24" viewBox="0 0 24 24" fill="none" xmlns="http://www.w3.org/2000/svg">
<path d="M20 6C20 4.34 16.42 3 12 3C7.58 3 4 4.34 4 6V12V18C4 19.66 7.58 21 12 21C16.42 21 20 19.66 20 18V12V6Z" stroke="white" stroke-width="1.5" stroke-linecap="round" stroke-linejoin="round"/>
<path d="M4 12C4 13.66 7.58 15 12 15C16.42 15 20 13.66 20 12" stroke="white" stroke-width="1.5" stroke-linecap="round" stroke-linejoin="round"/>
<path d="M20 6C20 7.66 16.42 9 12 9C7.58 9 4 7.66 4 6" stroke="white" stroke-width="1.5" stroke-linecap="round" stroke-linejoin="round"/>
</svg>
