<svg width="24" height="24" viewBox="0 0 24 24" fill="none" xmlns="http://www.w3.org/2000/svg">
<path d="M10.25 8.50685V4.50097C10.25 3.25685 9.68529 2.75391 8.28235 2.75391H4.71765C3.31471 2.75391 2.75 3.25685 2.75 4.50097V8.49802C2.75 9.75097 3.31471 10.2451 4.71765 10.2451H8.28235C9.68529 10.2539 10.25 9.75097 10.25 8.50685Z" stroke="white" stroke-width="1.5" stroke-linecap="round" stroke-linejoin="round"/>
<path d="M10.25 19.5078V15.5019C10.25 14.2578 9.68529 13.7549 8.28235 13.7549H4.71765C3.31471 13.7549 2.75 14.2578 2.75 15.5019V19.499C2.75 20.7519 3.31471 21.2461 4.71765 21.2461H8.28235C9.68529 21.2549 10.25 20.7519 10.25 19.5078Z" stroke="white" stroke-width="1.5" stroke-linecap="round" stroke-linejoin="round"/>
<path d="M21.25 8.50685V4.50097C21.25 3.25685 20.6853 2.75391 19.2824 2.75391H15.7176C14.3147 2.75391 13.75 3.25685 13.75 4.50097V8.49802C13.75 9.75097 14.3147 10.2451 15.7176 10.2451H19.2824C20.6853 10.2539 21.25 9.75097 21.25 8.50685Z" stroke="white" stroke-width="1.5" stroke-linecap="round" stroke-linejoin="round"/>
<path d="M21.25 19.5078V15.5019C21.25 14.2578 20.6853 13.7549 19.2824 13.7549H15.7176C14.3147 13.7549 13.75 14.2578 13.75 15.5019V19.499C13.75 20.7519 14.3147 21.2461 15.7176 21.2461H19.2824C20.6853 21.2549 21.25 20.7519 21.25 19.5078Z" stroke="white" stroke-width="1.5" stroke-linecap="round" stroke-linejoin="round"/>
</svg>
