<svg width="24" height="24" viewBox="0 0 24 24" fill="none" xmlns="http://www.w3.org/2000/svg">
<path d="M21 21L15.8 15.8M18 10.5C18 11.9834 17.5601 13.4334 16.736 14.6668C15.9119 15.9001 14.7406 16.8614 13.3701 17.4291C11.9997 17.9968 10.4917 18.1453 9.03683 17.8559C7.58197 17.5665 6.2456 16.8522 5.1967 15.8033C4.14781 14.7544 3.4335 13.418 3.14411 11.9632C2.85472 10.5083 3.00325 9.00032 3.57091 7.62987C4.13856 6.25943 5.09986 5.08809 6.33323 4.26398C7.5666 3.43987 9.01664 3 10.5 3C12.4891 3 14.3968 3.79018 15.8033 5.1967C17.2098 6.60322 18 8.51088 18 10.5Z" stroke="white" stroke-width="1.5" stroke-linecap="round" stroke-linejoin="round"/>
</svg>
