<svg width="24" height="24" viewBox="0 0 24 24" fill="none" xmlns="http://www.w3.org/2000/svg">
<path d="M17 21V19C17 17.9391 16.5786 16.9217 15.8284 16.1716C15.0783 15.4214 14.0609 15 13 15H5C3.93913 15 2.92172 15.4214 2.17157 16.1716C1.42143 16.9217 1 17.9391 1 19V21" stroke="white" stroke-width="1.6" stroke-linecap="square" stroke-linejoin="round"/>
<path d="M9 11C11.2091 11 13 9.20914 13 7C13 4.79086 11.2091 3 9 3C6.79086 3 5 4.79086 5 7C5 9.20914 6.79086 11 9 11Z" stroke="white" stroke-width="1.6" stroke-linecap="round" stroke-linejoin="round"/>
<path d="M22.2 20.9999V21.7999H23.8V20.9999H22.2ZM23 18.9999H23.8L23.8 18.9993L23 18.9999ZM20.2 14.3553C19.7722 14.2448 19.3359 14.5021 19.2254 14.9299C19.1149 15.3577 19.3722 15.794 19.8 15.9045L20.2 14.3553ZM23.8 20.9999V18.9999H22.2V20.9999H23.8ZM23.8 18.9993C23.7992 17.9358 23.4452 16.9026 22.7936 16.0621L21.5291 17.0423C21.9635 17.6027 22.1995 18.2915 22.2 19.0005L23.8 18.9993ZM22.7936 16.0621C22.1421 15.2215 21.2298 14.6212 20.2 14.3553L19.8 15.9045C20.4865 16.0817 21.0947 16.482 21.5291 17.0423L22.7936 16.0621Z" fill="white"/>
<path d="M16 3.12988C16.8604 3.35018 17.623 3.85058 18.1676 4.55219C18.7122 5.2538 19.0078 6.11671 19.0078 7.00488C19.0078 7.89305 18.7122 8.75596 18.1676 9.45757C17.623 10.1592 16.8604 10.6596 16 10.8799" stroke="white" stroke-width="1.6" stroke-linecap="round" stroke-linejoin="round"/>
</svg>
