<svg width="21" height="18" viewBox="0 0 21 18" fill="none" xmlns="http://www.w3.org/2000/svg">
<path d="M20.5 2.85783C19.7483 3.18392 18.9534 3.39949 18.14 3.49783C18.9982 2.98515 19.6413 2.17861 19.95 1.22783C19.1436 1.70789 18.2608 2.04612 17.34 2.22783C16.7245 1.5604 15.905 1.11612 15.0098 0.964678C14.1147 0.813233 13.1945 0.963185 12.3938 1.39102C11.593 1.81885 10.9569 2.50036 10.5852 3.32866C10.2135 4.15697 10.1273 5.08522 10.34 5.96783C8.70943 5.88535 7.11444 5.46078 5.65865 4.72169C4.20287 3.9826 2.91885 2.94552 1.89 1.67783C1.52914 2.308 1.33952 3.02165 1.34 3.74783C1.33872 4.42221 1.50422 5.08644 1.82176 5.68139C2.13929 6.27634 2.59902 6.78354 3.16 7.15783C2.50798 7.14009 1.86989 6.96513 1.3 6.64783V6.69783C1.30489 7.64272 1.63599 8.55692 2.23731 9.28579C2.83864 10.0147 3.67326 10.5135 4.6 10.6978C4.24326 10.8064 3.87287 10.8636 3.5 10.8678C3.24189 10.8648 2.98442 10.8414 2.73 10.7978C2.99391 11.6106 3.50462 12.321 4.19107 12.83C4.87753 13.339 5.70558 13.6214 6.56 13.6378C5.1172 14.7731 3.33588 15.3927 1.5 15.3978C1.16574 15.3989 0.831736 15.3789 0.5 15.3378C2.37443 16.5481 4.55881 17.1905 6.79 17.1878C8.32969 17.2038 9.85714 16.9128 11.2831 16.3319C12.7091 15.751 14.005 14.8917 15.0952 13.8043C16.1854 12.7169 17.048 11.4232 17.6326 9.99873C18.2172 8.57425 18.512 7.04755 18.5 5.50783C18.5 5.33783 18.5 5.15783 18.5 4.97783C19.2847 4.39264 19.9615 3.67525 20.5 2.85783Z" fill="#000929"/>
</svg>
