<svg width="21" height="21" viewBox="0 0 21 21" fill="none" xmlns="http://www.w3.org/2000/svg">
<path d="M15.84 3.51762C15.6027 3.51762 15.3707 3.588 15.1733 3.71985C14.976 3.85171 14.8222 4.03913 14.7313 4.2584C14.6405 4.47767 14.6168 4.71895 14.6631 4.95173C14.7094 5.1845 14.8236 5.39832 14.9915 5.56615C15.1593 5.73397 15.3731 5.84826 15.6059 5.89456C15.8387 5.94086 16.0799 5.9171 16.2992 5.82627C16.5185 5.73545 16.7059 5.58164 16.8378 5.3843C16.9696 5.18696 17.04 4.95495 17.04 4.71762C17.04 4.39936 16.9136 4.09413 16.6885 3.86909C16.4635 3.64405 16.1583 3.51762 15.84 3.51762ZM20.44 5.93762C20.4206 5.10792 20.2652 4.28702 19.98 3.50762C19.7257 2.84075 19.33 2.2369 18.82 1.73762C18.3248 1.22504 17.7196 0.831794 17.05 0.587617C16.2727 0.293778 15.4508 0.134827 14.62 0.117617C13.56 0.0576171 13.22 0.0576172 10.5 0.0576172C7.78 0.0576172 7.44 0.0576171 6.38 0.117617C5.54915 0.134827 4.72734 0.293778 3.95 0.587617C3.28168 0.834266 2.67693 1.22718 2.18 1.73762C1.66743 2.23279 1.27418 2.83806 1.03 3.50762C0.736161 4.28496 0.57721 5.10677 0.56 5.93762C0.5 6.99762 0.5 7.33762 0.5 10.0576C0.5 12.7776 0.5 13.1176 0.56 14.1776C0.57721 15.0085 0.736161 15.8303 1.03 16.6076C1.27418 17.2772 1.66743 17.8824 2.18 18.3776C2.67693 18.8881 3.28168 19.281 3.95 19.5276C4.72734 19.8215 5.54915 19.9804 6.38 19.9976C7.44 20.0576 7.78 20.0576 10.5 20.0576C13.22 20.0576 13.56 20.0576 14.62 19.9976C15.4508 19.9804 16.2727 19.8215 17.05 19.5276C17.7196 19.2834 18.3248 18.8902 18.82 18.3776C19.3322 17.8802 19.7283 17.2758 19.98 16.6076C20.2652 15.8282 20.4206 15.0073 20.44 14.1776C20.44 13.1176 20.5 12.7776 20.5 10.0576C20.5 7.33762 20.5 6.99762 20.44 5.93762ZM18.64 14.0576C18.6327 14.6924 18.5178 15.3213 18.3 15.9176C18.1403 16.3528 17.8839 16.746 17.55 17.0676C17.2256 17.3981 16.8332 17.6541 16.4 17.8176C15.8037 18.0354 15.1748 18.1503 14.54 18.1576C13.54 18.2076 13.17 18.2176 10.54 18.2176C7.91 18.2176 7.54 18.2176 6.54 18.1576C5.88089 18.17 5.22459 18.0685 4.6 17.8576C4.18578 17.6857 3.81136 17.4304 3.5 17.1076C3.16809 16.7864 2.91484 16.3928 2.76 15.9576C2.51586 15.3528 2.38044 14.7096 2.36 14.0576C2.36 13.0576 2.3 12.6876 2.3 10.0576C2.3 7.42762 2.3 7.05762 2.36 6.05762C2.36448 5.40867 2.48295 4.76556 2.71 4.15762C2.88605 3.73553 3.15627 3.35928 3.5 3.05762C3.80381 2.71379 4.17929 2.44071 4.6 2.25762C5.20955 2.03766 5.852 1.9227 6.5 1.91762C7.5 1.91762 7.87 1.85762 10.5 1.85762C13.13 1.85762 13.5 1.85762 14.5 1.91762C15.1348 1.9249 15.7637 2.03986 16.36 2.25762C16.8144 2.42627 17.2223 2.70046 17.55 3.05762C17.8777 3.3648 18.1338 3.74035 18.3 4.15762C18.5223 4.76655 18.6373 5.4094 18.64 6.05762C18.69 7.05762 18.7 7.42762 18.7 10.0576C18.7 12.6876 18.69 13.0576 18.64 14.0576ZM10.5 4.92762C9.48581 4.92959 8.49496 5.23214 7.65265 5.79704C6.81035 6.36193 6.15438 7.16381 5.76763 8.10137C5.38089 9.03893 5.28072 10.0701 5.47979 11.0645C5.67886 12.059 6.16824 12.9722 6.88608 13.6886C7.60392 14.405 8.51801 14.8926 9.51286 15.0898C10.5077 15.2869 11.5387 15.1847 12.4755 14.7962C13.4123 14.4076 14.2129 13.7501 14.7761 12.9067C15.3394 12.0632 15.64 11.0718 15.64 10.0576C15.6413 9.38272 15.5092 8.71422 15.2512 8.09057C14.9933 7.46692 14.6146 6.90043 14.1369 6.42367C13.6592 5.94691 13.0919 5.5693 12.4678 5.31255C11.8436 5.0558 11.1749 4.92498 10.5 4.92762ZM10.5 13.3876C9.84139 13.3876 9.19757 13.1923 8.64995 12.8264C8.10234 12.4605 7.67552 11.9404 7.42348 11.332C7.17144 10.7235 7.1055 10.0539 7.23398 9.40797C7.36247 8.76201 7.67963 8.16866 8.14533 7.70295C8.61104 7.23724 9.20439 6.92009 9.85035 6.7916C10.4963 6.66311 11.1659 6.72906 11.7743 6.9811C12.3828 7.23314 12.9029 7.65995 13.2688 8.20757C13.6347 8.75518 13.83 9.39901 13.83 10.0576C13.83 10.4949 13.7439 10.9279 13.5765 11.332C13.4092 11.736 13.1639 12.1031 12.8547 12.4123C12.5454 12.7215 12.1784 12.9668 11.7743 13.1341C11.3703 13.3015 10.9373 13.3876 10.5 13.3876Z" fill="#000929"/>
</svg>
